<svg id="レイヤー_1" data-name="レイヤー 1" xmlns="http://www.w3.org/2000/svg" viewBox="0 0 503.72 117.44"><defs><style>.cls-1{fill:#fff;}</style></defs><title>Alphenix</title><path class="cls-1" d="M473.32,319.72H438.74c-.11,0-.18,0-.2.15l-.64,3s0,.13.07.14c3.15.46,5.55,4.77,4.12,8.49a8.35,8.35,0,0,1-.43.95L400,403.31h18.92l11.91-20.93h34.84l2.76,20.93h18.8Zm-36.22,50,21.81-38.23,5.51,38.23Z" transform="translate(-400 -312.94)"/><path class="cls-1" d="M495,403.31l19-90.37h17.24l-19,90.37Z" transform="translate(-400 -312.94)"/><path class="cls-1" d="M536.08,362c1.49-7,2.6-14.16,3.47-21.68h16.5l-2.11,13.78c5.34-10,14-14.91,23.58-14.91,11.78,0,18.24,8.77,18.24,20.93,0,25.44-16.75,44.62-41.69,44.62a75.27,75.27,0,0,1-9.93-.63l-5.58,26.32H521.31ZM546.62,392a24.65,24.65,0,0,0,7.94,1c13.16,0,23.33-13.66,23.33-31.58,0-6.52-3.1-10.66-7.94-10.66-7.57,0-16.87,10.91-19.6,23.44Z" transform="translate(-400 -312.94)"/><path class="cls-1" d="M598.73,403.31l19-90.37h17.12l-8.07,37.48c5.83-7,12.53-11.28,21.47-11.28,9.8,0,17,4.89,17,15a35.48,35.48,0,0,1-1.24,9.27l-8.31,39.86H638.43l7.94-37.6a33.51,33.51,0,0,0,.87-6.77c0-4.89-2.35-8.15-7.94-8.15-9.67,0-13.89,8.4-15.88,17L616,403.31Z" transform="translate(-400 -312.94)"/><path class="cls-1" d="M721.06,399.8c-7.07,3.51-15.13,4.89-23.69,4.89-13.4,0-26.31-5.27-26.31-21.69,0-25.06,18.74-43.86,40.82-43.86,10,0,21.47,3.63,21.47,15.16,0,19.81-28.79,22.44-44.17,22.44a16.35,16.35,0,0,0-.62,4.88c0,8.4,6.57,11.66,14.14,11.66a36.52,36.52,0,0,0,19.11-5.51Zm-3.22-44.37c0-4.64-3.35-6.14-7.45-6.14-9.3,0-16.37,9.65-18.73,17.67,2.85,0,5.71-.12,8.81-.37C709.28,365.58,717.84,363,717.84,355.43Z" transform="translate(-400 -312.94)"/><path class="cls-1" d="M744.22,354.43a126.49,126.49,0,0,0,2.35-14H762.7l-1.86,11.16c6-8.4,12.16-12.41,22.46-12.41,10.05,0,17,4.89,17,15.41a36.62,36.62,0,0,1-.75,7.15l-8.68,41.61H773.75l7.81-37.85a33.15,33.15,0,0,0,1-6.52c0-4.89-2.23-8.15-8.18-8.15-9.19,0-13.78,8.4-15.51,16.55l-7.57,36H734Z" transform="translate(-400 -312.94)"/><path class="cls-1" d="M804.59,403.31l13.15-62.92H835l-13.16,62.92ZM820,328.74l2.86-13.92H840.2l-2.86,13.92Z" transform="translate(-400 -312.94)"/><path class="cls-1" d="M829.28,403.31l27.91-33.09-13-29.83h18l7.56,22.94,15.76-22.94h18.24l-25.06,30.08,13.77,32.84H874.07l-7.7-24.57-18.73,24.57Z" transform="translate(-400 -312.94)"/></svg>