<svg id="レイヤー_1" data-name="レイヤー 1" xmlns="http://www.w3.org/2000/svg" viewBox="0 0 625.23 120.78"><defs><style>.cls-1{fill:#fff;}</style></defs><title>Aquilion_start</title><path class="cls-1" d="M443.41,322.88H407.85c-.12,0-.19,0-.21.16l-.66,3.07s0,.13.07.15c3.24.47,5.71,4.91,4.24,8.73a7.6,7.6,0,0,1-.45,1L368,408.86h19.46l12.25-21.53h35.83l2.84,21.53h19.33Zm-37.26,51.43L428.58,335l5.67,39.31Z" transform="translate(-368 -315.92)"/><path class="cls-1" d="M506.82,395.58c-6.58,9.67-13.66,14.7-23.85,14.7-12,0-19.59-8.25-19.59-21.53,0-25.39,19.59-45.89,46.92-45.89a117.59,117.59,0,0,1,25,2.84l-19.59,91H497.92Zm8.38-39.83a19.6,19.6,0,0,0-6.19-.9c-14.18,0-26.94,16.24-26.94,32.74,0,6.19,3,10.7,8.25,10.7,10.31,0,18.56-13.79,21.4-25.91Z" transform="translate(-368 -315.92)"/><path class="cls-1" d="M545.74,344h17.79l-8.12,39.06a33.68,33.68,0,0,0-1,6.7c0,5,2.32,8.51,8.51,8.51,9.66,0,14.3-8.9,16-17.15L586.73,344h17.79l-10.44,50.27a144.77,144.77,0,0,0-2.45,14.57H575l1.81-11.6c-5.55,7.6-12.38,13-23.08,13-10.44,0-17.78-5.16-17.78-16a35,35,0,0,1,.64-7.34Z" transform="translate(-368 -315.92)"/><path class="cls-1" d="M601.16,408.86l13.67-64.71h17.91l-13.66,64.71Zm16-76.7,3-14.31h18l-3,14.31Z" transform="translate(-368 -315.92)"/><path class="cls-1" d="M630.55,408.86l19.72-92.94h17.92l-19.72,92.94Z" transform="translate(-368 -315.92)"/><path class="cls-1" d="M660.06,408.86l13.67-64.71h17.92L678,408.86Zm16-76.7,3-14.31h18l-3,14.31Z" transform="translate(-368 -315.92)"/><path class="cls-1" d="M691.13,386.82c0-25,16-44,41.76-44,14.31,0,27.33,6.19,27.33,23.33,0,24.75-16.37,44.09-41.64,44.09-11.08,0-20.49-3.61-25.26-12.51A25.46,25.46,0,0,1,691.13,386.82Zm50.53-18.57c0-7.73-3.1-13.4-11.47-13.4-14.18,0-20.37,18.3-20.37,29.65,0,7.73,3,13.4,11.34,13.4C735.21,397.9,741.66,379.21,741.66,368.25Z" transform="translate(-368 -315.92)"/><path class="cls-1" d="M770.52,358.59A126.43,126.43,0,0,0,773,344.15h16.76l-1.93,11.47c6.18-8.63,12.63-12.76,23.33-12.76,10.44,0,17.66,5,17.66,15.86a37.79,37.79,0,0,1-.77,7.34l-9,42.8H801.2l8.12-38.93a33.75,33.75,0,0,0,1-6.7c0-5-2.32-8.38-8.51-8.38-9.54,0-14.31,8.64-16.11,17l-7.87,37H760Z" transform="translate(-368 -315.92)"/><path class="cls-1" d="M843.48,400.88a23.36,23.36,0,0,0,11,2.55c4.76,0,8.92-2.08,8.92-6.63,0-7.65-16.22-7.91-16.22-19.24,0-10.73,9.78-13.54,18.9-13.54a36.21,36.21,0,0,1,11.86,2l-2.28,6.84a23.56,23.56,0,0,0-9.92-2.21c-3.82,0-8.44,1.2-8.44,5.63,0,6.5,16.35,6.83,16.35,19.17,0,9.85-8,14.67-19.1,14.67a42.69,42.69,0,0,1-13.41-1.94Z" transform="translate(-368 -315.92)"/><path class="cls-1" d="M884.2,381.92h-6l1.34-6.17h6l1.41-6.84,9.92-3-2.08,9.85h7.38l-1.35,6.17h-7.3L890.1,397.6a17.13,17.13,0,0,0-.47,3.15c0,2.21,1.34,2.95,3.22,2.95a9.41,9.41,0,0,0,3.82-.8l-.87,6a21.31,21.31,0,0,1-7,1.2c-4.83,0-8.72-1.47-8.72-7.3a25.45,25.45,0,0,1,.61-4.63Z" transform="translate(-368 -315.92)"/><path class="cls-1" d="M923.61,409.4a50.4,50.4,0,0,1,1.08-8.52c-3.42,6.24-8.11,9.25-13.48,9.25-6.23,0-10.18-4.29-10.18-11.19,0-13.2,10.18-23.86,24.39-23.86a61.76,61.76,0,0,1,13,1.47l-3.89,18.1a81.94,81.94,0,0,0-2.08,14.75ZM928,381.78a10.24,10.24,0,0,0-3.22-.47c-7.37,0-14,8.45-14,17,0,3.21,1.55,5.56,4.29,5.56,5.3,0,9.72-6.84,11.13-13.47Z" transform="translate(-368 -315.92)"/><path class="cls-1" d="M939.81,409.4l5.57-26.14a74.49,74.49,0,0,0,1.34-7.44h8.71l-1.27,6.9c2.14-4.09,6.16-7.71,11-7.71a8.61,8.61,0,0,1,2.68.34l-2.15,8.44a7.23,7.23,0,0,0-2.74-.47c-6.1,0-9.59,5.9-10.66,11.26l-3.15,14.82Z" transform="translate(-368 -315.92)"/><path class="cls-1" d="M975.27,381.92h-6l1.35-6.17h6l1.41-6.84,9.92-3-2.08,9.85h7.37l-1.34,6.17h-7.31l-3.41,15.68a16.32,16.32,0,0,0-.47,3.15c0,2.21,1.34,2.95,3.21,2.95a9.38,9.38,0,0,0,3.82-.8l-.87,6a21.31,21.31,0,0,1-7,1.2c-4.82,0-8.71-1.47-8.71-7.3a26.26,26.26,0,0,1,.6-4.63Z" transform="translate(-368 -315.92)"/></svg>