<svg id="レイヤー_1" data-name="レイヤー 1" xmlns="http://www.w3.org/2000/svg" viewBox="0 0 628.83 102.83"><defs><style>.cls-1{fill:#fff;}</style></defs><title>Vantage_Orian</title><path class="cls-1" d="M402.77,364.19l-23.53,43.69h0l-5.15-43.68H358.57c-.08,0-.12,0-.14.1l-.42,2s0,.09,0,.1c1.86.34,3.87,2.08,4.34,5.45l.09.64s7.08,47.23,7.08,47.23H384l31.71-55.51Z" transform="translate(-358 -335.77)"/><path class="cls-1" d="M434.16,419.7a62.53,62.53,0,0,1,1.33-10.57c-4.24,7.74-10.07,11.49-16.73,11.49-7.74,0-12.65-5.33-12.65-13.9,0-16.4,12.65-29.63,30.3-29.63a76.07,76.07,0,0,1,16.14,1.83l-4.82,22.47c-1.67,7.74-2.59,14.57-2.59,18.31Zm5.41-34.29a12.73,12.73,0,0,0-4-.58c-9.15,0-17.39,10.49-17.39,21.14,0,4,1.92,6.91,5.33,6.91,6.57,0,12.06-8.49,13.81-16.73Z" transform="translate(-358 -335.77)"/><path class="cls-1" d="M461.53,387.24a84.26,84.26,0,0,0,1.59-9.32h10.82l-1.25,7.41c4-5.58,8.15-8.24,15.06-8.24,6.74,0,11.4,3.25,11.4,10.24a23.68,23.68,0,0,1-.5,4.74l-5.82,27.63H481.34l5.25-25.13a22.16,22.16,0,0,0,.66-4.33c0-3.25-1.5-5.41-5.49-5.41-6.16,0-9.24,5.58-10.4,11l-5.08,23.88H454.71Z" transform="translate(-358 -335.77)"/><path class="cls-1" d="M512.55,385.58h-7.49l1.66-7.66h7.49l1.75-8.49,12.32-3.74-2.58,12.23h9.15l-1.66,7.66h-9.08l-4.24,19.47a21.21,21.21,0,0,0-.58,3.92c0,2.74,1.66,3.66,4,3.66a11.66,11.66,0,0,0,4.75-1l-1.09,7.49a26.28,26.28,0,0,1-8.65,1.5c-6,0-10.82-1.83-10.82-9.07a31.65,31.65,0,0,1,.75-5.75Z" transform="translate(-358 -335.77)"/><path class="cls-1" d="M564,419.7a61.51,61.51,0,0,1,1.33-10.57c-4.25,7.74-10.07,11.49-16.73,11.49-7.74,0-12.65-5.33-12.65-13.9,0-16.4,12.65-29.63,30.29-29.63a76.16,76.16,0,0,1,16.15,1.83l-4.83,22.47C575.88,409.13,575,416,575,419.7Zm5.4-34.29a12.67,12.67,0,0,0-4-.58c-9.15,0-17.39,10.49-17.39,21.14,0,4,1.91,6.91,5.32,6.91,6.58,0,12.07-8.49,13.82-16.73Z" transform="translate(-358 -335.77)"/><path class="cls-1" d="M583.78,428a24,24,0,0,0,12,2.83c10.4,0,14.73-5.32,16.48-13.31l1.58-7.24c-3.91,6-8.9,9.4-15.56,9.4-7.74,0-12.65-5.16-12.65-13.48,0-16.06,12.65-29.13,30.29-29.13a76.23,76.23,0,0,1,16.15,1.83l-7.41,35.2C621.06,431,614.4,438.59,596,438.59a45.71,45.71,0,0,1-14.48-2.33Zm35.28-42.61a12.67,12.67,0,0,0-4-.58c-9.15,0-17.4,10.49-17.4,20.89,0,3.91,1.92,6.41,5.33,6.41,6.66,0,12.07-8.24,13.82-16Z" transform="translate(-358 -335.77)"/><path class="cls-1" d="M668.41,417.37a35.77,35.77,0,0,1-15.9,3.25c-9,0-17.64-3.5-17.64-14.4,0-16.65,12.57-29.13,27.38-29.13,6.74,0,14.4,2.41,14.4,10.07,0,13.15-19.31,14.9-29.63,14.9a10.92,10.92,0,0,0-.41,3.24c0,5.58,4.41,7.74,9.48,7.74a24.68,24.68,0,0,0,12.82-3.66Zm-2.16-29.46c0-3.08-2.25-4.08-5-4.08-6.24,0-11,6.41-12.56,11.74,1.91,0,3.82-.09,5.91-.25C660.5,394.65,666.25,392.9,666.25,387.91Z" transform="translate(-358 -335.77)"/><path class="cls-1" d="M693.55,390.57c0-27.46,17.12-51.36,46.61-51.36,21.16,0,32,15.1,32,30.92,0,28.17-15.93,50.88-47.08,50.88a36.17,36.17,0,0,1-14.15-2.5C699,413.28,693.55,402.34,693.55,390.57ZM727,409c19,0,27.11-22.23,27.11-38.87,0-9.52-4.16-18.91-15.93-18.91-18.19,0-26.4,23.07-26.4,39.23,0,4.88,1.19,9.63,3.57,13.08S721.61,409,727,409Z" transform="translate(-358 -335.77)"/><path class="cls-1" d="M774.51,419.7l9.87-46.36a127,127,0,0,0,2.37-13.2h15.46L800,372.38c3.8-7.25,10.94-13.67,19.5-13.67a15.18,15.18,0,0,1,4.75.6l-3.8,15a12.63,12.63,0,0,0-4.88-.84c-10.81,0-17,10.47-18.9,20L791,419.7Z" transform="translate(-358 -335.77)"/><path class="cls-1" d="M822.41,419.7,835,360h16.52l-12.6,59.68ZM837.16,349l2.73-13.19h16.65L853.8,349Z" transform="translate(-358 -335.77)"/><path class="cls-1" d="M894.82,419.7a87.94,87.94,0,0,1,1.9-15.1c-6.07,11.06-14.39,16.41-23.9,16.41-11.05,0-18.07-7.61-18.07-19.86,0-23.42,18.07-42.32,43.28-42.32a108.43,108.43,0,0,1,23.06,2.62l-6.9,32.1c-2.37,11.05-3.68,20.8-3.68,26.15Zm7.72-49a18,18,0,0,0-5.7-.83c-13.08,0-24.85,15-24.85,30.19,0,5.71,2.73,9.87,7.61,9.87,9.39,0,17.24-12.12,19.73-23.89Z" transform="translate(-358 -335.77)"/><path class="cls-1" d="M933.09,373.34A120.92,120.92,0,0,0,935.35,360h15.46L949,370.6c5.71-8,11.65-11.77,21.52-11.77,9.63,0,16.29,4.64,16.29,14.62a35.06,35.06,0,0,1-.71,6.78l-8.33,39.47h-16.4l7.49-35.9a31.77,31.77,0,0,0,1-6.19c0-4.63-2.14-7.72-7.85-7.72-8.8,0-13.2,8-14.86,15.69l-7.25,34.12H923.34Z" transform="translate(-358 -335.77)"/></svg>