<?xml version="1.0" encoding="utf-8"?>
<!-- Generator: Adobe Illustrator 20.0.0, SVG Export Plug-In . SVG Version: 6.00 Build 0)  -->
<svg version="1.1" id="Layer_1" xmlns="http://www.w3.org/2000/svg" xmlns:xlink="http://www.w3.org/1999/xlink" x="0px" y="0px"
	 viewBox="0 0 432.7 26" style="enable-background:new 0 0 432.7 26;" xml:space="preserve">
<polygon points="10.9,6.8 7.2,6.8 7.2,21.1 3.7,21.1 3.7,6.8 0,6.8 0,4 10.9,4 "/>
<path d="M29,16.3c0,0.4,0,0.8,0.1,1.1c0.1,0.3,0.2,0.6,0.4,0.8c0.2,0.2,0.4,0.4,0.7,0.5s0.7,0.2,1.1,0.2c0.5,0,1-0.2,1.4-0.5
	s0.6-0.9,0.6-1.6c0-0.4-0.1-0.7-0.2-1c-0.1-0.3-0.3-0.5-0.5-0.8c-0.2-0.2-0.6-0.4-0.9-0.6c-0.4-0.2-0.9-0.4-1.5-0.6
	c-0.8-0.3-1.4-0.5-2-0.8c-0.6-0.3-1-0.7-1.4-1.1c-0.4-0.4-0.7-0.9-0.8-1.4c-0.2-0.5-0.3-1.2-0.3-1.9c0-1.7,0.5-3,1.4-3.8
	c0.9-0.8,2.2-1.2,3.9-1.2c0.8,0,1.5,0.1,2.1,0.3c0.6,0.2,1.2,0.4,1.7,0.8s0.8,0.9,1.1,1.4s0.4,1.3,0.4,2.1v0.5h-3.3
	c0-0.8-0.1-1.4-0.4-1.9c-0.3-0.4-0.8-0.7-1.4-0.7c-0.4,0-0.7,0.1-1,0.2c-0.3,0.1-0.5,0.3-0.6,0.4c-0.2,0.2-0.3,0.4-0.3,0.6
	c-0.1,0.2-0.1,0.5-0.1,0.7c0,0.5,0.1,1,0.3,1.3c0.2,0.4,0.7,0.7,1.4,1l2.7,1.2c0.7,0.3,1.2,0.6,1.6,0.9c0.4,0.3,0.7,0.6,1,1
	c0.2,0.4,0.4,0.8,0.5,1.2s0.1,0.9,0.1,1.4c0,1.8-0.5,3.1-1.6,3.9c-1,0.8-2.5,1.2-4.4,1.2c-2,0-3.3-0.4-4.2-1.3
	c-0.8-0.8-1.3-2.1-1.3-3.6v-0.7H29V16.3z"/>
<path d="M15.6,15.5c0.1,0.8,0.2,1.5,0.3,2c0.2,0.5,0.4,0.9,0.7,1.1s0.7,0.3,1.2,0.3c0.5,0,0.9-0.1,1.2-0.3s0.6-0.6,0.7-1.1
	c0.2-0.5,0.3-1.2,0.3-2c0.1-0.8,0.1-1.8,0.1-2.9s0-2.1-0.1-2.9s-0.2-1.5-0.3-2c-0.2-0.5-0.4-0.9-0.7-1.1c-0.3-0.2-0.7-0.3-1.2-0.3
	c-0.5,0-0.9,0.1-1.2,0.3c-0.3,0.2-0.6,0.6-0.7,1.1c-0.2,0.5-0.3,1.2-0.3,2s-0.1,1.8-0.1,2.9S15.6,14.7,15.6,15.5 M12.3,9
	c0.1-1.1,0.4-2,0.8-2.8s1-1.4,1.8-1.8s1.8-0.7,3.1-0.7s2.3,0.2,3.1,0.7s1.4,1.1,1.8,1.8c0.4,0.8,0.7,1.7,0.8,2.8
	c0.1,1.1,0.2,2.3,0.2,3.6c0,1.3-0.1,2.5-0.2,3.6c-0.1,1.1-0.4,2-0.8,2.8c-0.4,0.8-1,1.4-1.8,1.8c-0.8,0.4-1.8,0.6-3.1,0.6
	s-2.3-0.2-3.1-0.6c-0.8-0.4-1.4-1-1.8-1.8s-0.7-1.7-0.8-2.8s-0.2-2.3-0.2-3.6C12.1,11.3,12.1,10.1,12.3,9"/>
<polygon points="42.6,4 42.6,10.5 46.7,10.5 46.7,4 50.1,4 50.1,21.1 46.7,21.1 46.7,13.5 42.6,13.5 42.6,21.1 39.2,21.1 39.2,4 "/>
<rect x="53.2" y="4" width="3.5" height="17.1"/>
<path d="M64.5,18.6c0.8,0,1.5-0.2,2-0.6c0.5-0.4,0.8-1,0.8-2c0-0.5-0.1-0.9-0.2-1.2c-0.1-0.3-0.3-0.6-0.6-0.8
	c-0.2-0.2-0.5-0.3-0.8-0.4s-0.7-0.1-1.1-0.1h-1.5v5.2H64.5z M64.1,11c1,0,1.7-0.2,2.1-0.5s0.7-0.9,0.7-1.7S66.7,7.4,66.3,7
	c-0.4-0.3-1-0.5-1.9-0.5h-1.2V11H64.1z M65.5,4c0.7,0,1.4,0.1,2,0.2s1.1,0.4,1.5,0.7c0.4,0.3,0.8,0.8,1,1.3c0.2,0.6,0.4,1.2,0.4,2.1
	c0,0.9-0.2,1.7-0.6,2.4c-0.4,0.7-1.1,1.1-1.9,1.4v0c1,0.1,1.7,0.5,2.3,1.2c0.6,0.7,0.8,1.6,0.8,2.8c0,0.7-0.1,1.3-0.3,1.9
	c-0.2,0.6-0.5,1.1-0.9,1.6c-0.4,0.5-1,0.8-1.7,1.1c-0.7,0.3-1.5,0.4-2.5,0.4h-5.8V4H65.5z"/>
<path d="M80.7,14.7L79,7h0l-1.7,7.7H80.7z M81.1,4l4.5,17.1h-3.6l-0.8-3.6h-4.6l-0.8,3.6h-3.6L76.8,4H81.1z"/>
<polygon points="98.8,4 101.2,16.1 101.3,16.1 103.8,4 108.9,4 108.9,21.1 105.7,21.1 105.7,7.4 105.6,7.4 102.6,21.1 99.9,21.1 
	96.9,7.4 96.8,7.4 96.8,21.1 93.6,21.1 93.6,4 "/>
<polygon points="121.9,6.8 115.8,6.8 115.8,10.9 121.5,10.9 121.5,13.7 115.8,13.7 115.8,18.3 122.1,18.3 122.1,21.1 112.3,21.1 
	112.3,4 121.9,4 "/>
<path d="M130,18.6c0.6,0,1.1-0.1,1.5-0.3c0.4-0.2,0.7-0.6,0.9-1s0.4-1.1,0.4-1.9c0.1-0.8,0.1-1.8,0.1-2.9c0-1,0-1.8-0.1-2.6
	c-0.1-0.7-0.2-1.3-0.4-1.8c-0.2-0.5-0.5-0.9-0.9-1.1c-0.4-0.2-0.9-0.4-1.6-0.4h-1.5v12H130z M130.6,4c1.2,0,2.2,0.2,2.9,0.6
	c0.7,0.4,1.3,1,1.7,1.7c0.4,0.7,0.7,1.6,0.8,2.6c0.1,1,0.2,2.2,0.2,3.4c0,1.5-0.1,2.8-0.3,3.9c-0.2,1.1-0.5,2-0.9,2.7
	c-0.4,0.7-1,1.3-1.8,1.6c-0.8,0.4-1.7,0.5-2.9,0.5H125V4H130.6z"/>
<rect x="139.2" y="4" width="3.5" height="17.1"/>
<path d="M152.6,7.1c-0.3-0.6-0.8-0.9-1.6-0.9c-0.4,0-0.8,0.1-1.1,0.3c-0.3,0.2-0.5,0.6-0.7,1.1c-0.2,0.5-0.3,1.2-0.3,2
	c-0.1,0.8-0.1,1.9-0.1,3.1c0,1.3,0,2.3,0.1,3.1c0.1,0.8,0.2,1.4,0.4,1.9c0.2,0.4,0.4,0.7,0.7,0.9c0.3,0.2,0.6,0.2,1,0.2
	c0.3,0,0.6-0.1,0.9-0.2c0.3-0.1,0.5-0.3,0.7-0.6c0.2-0.3,0.3-0.8,0.5-1.3s0.2-1.3,0.2-2.2h3.5c0,0.9-0.1,1.8-0.2,2.6
	c-0.1,0.8-0.4,1.6-0.8,2.2c-0.4,0.6-0.9,1.1-1.7,1.5c-0.7,0.4-1.6,0.5-2.8,0.5c-1.3,0-2.3-0.2-3.1-0.6c-0.8-0.4-1.4-1-1.8-1.8
	c-0.4-0.8-0.7-1.7-0.8-2.8c-0.1-1.1-0.2-2.3-0.2-3.6c0-1.3,0.1-2.5,0.2-3.6c0.1-1.1,0.4-2,0.8-2.8c0.4-0.8,1-1.4,1.8-1.8
	c0.8-0.4,1.8-0.7,3.1-0.7c1.2,0,2.2,0.2,2.9,0.6c0.7,0.4,1.2,0.9,1.6,1.5c0.4,0.6,0.6,1.3,0.7,2c0.1,0.7,0.1,1.4,0.1,2H153
	C153,8.5,152.9,7.6,152.6,7.1"/>
<path d="M166.2,14.7L164.6,7h0l-1.7,7.7H166.2z M166.7,4l4.5,17.1h-3.6l-0.8-3.6h-4.6l-0.8,3.6h-3.6L162.4,4H166.7z"/>
<polygon points="172.9,4 176.4,4 176.4,18.3 182.5,18.3 182.5,21.1 172.9,21.1 "/>
<path d="M193.5,16.3c0,0.4,0,0.8,0.1,1.1c0.1,0.3,0.2,0.6,0.4,0.8c0.2,0.2,0.4,0.4,0.7,0.5s0.7,0.2,1.1,0.2c0.5,0,1-0.2,1.4-0.5
	c0.4-0.3,0.6-0.9,0.6-1.6c0-0.4-0.1-0.7-0.2-1c-0.1-0.3-0.3-0.5-0.5-0.8c-0.2-0.2-0.6-0.4-0.9-0.6s-0.9-0.4-1.5-0.6
	c-0.8-0.3-1.4-0.5-2-0.8c-0.6-0.3-1-0.7-1.4-1.1c-0.4-0.4-0.7-0.9-0.8-1.4c-0.2-0.5-0.3-1.2-0.3-1.9c0-1.7,0.5-3,1.4-3.8
	s2.2-1.2,3.9-1.2c0.8,0,1.5,0.1,2.1,0.3c0.6,0.2,1.2,0.4,1.7,0.8s0.8,0.9,1.1,1.4c0.3,0.6,0.4,1.3,0.4,2.1v0.5h-3.3
	c0-0.8-0.1-1.4-0.4-1.9c-0.3-0.4-0.8-0.7-1.4-0.7c-0.4,0-0.7,0.1-1,0.2c-0.3,0.1-0.5,0.3-0.6,0.4c-0.2,0.2-0.3,0.4-0.3,0.6
	c-0.1,0.2-0.1,0.5-0.1,0.7c0,0.5,0.1,1,0.3,1.3c0.2,0.4,0.7,0.7,1.4,1l2.7,1.2c0.7,0.3,1.2,0.6,1.6,0.9s0.7,0.6,1,1
	c0.2,0.4,0.4,0.8,0.5,1.2c0.1,0.4,0.1,0.9,0.1,1.4c0,1.8-0.5,3.1-1.6,3.9c-1,0.8-2.5,1.2-4.4,1.2c-2,0-3.3-0.4-4.2-1.3
	s-1.3-2.1-1.3-3.6v-0.7h3.5V16.3z"/>
<polygon points="208.5,10.6 208.5,10.6 210.9,4 214.7,4 210.2,14.4 210.2,21.1 206.8,21.1 206.8,14.4 202.3,4 206.2,4 "/>
<path d="M218.9,16.3c0,0.4,0,0.8,0.1,1.1c0.1,0.3,0.2,0.6,0.4,0.8c0.2,0.2,0.4,0.4,0.7,0.5c0.3,0.1,0.7,0.2,1.1,0.2
	c0.5,0,1-0.2,1.4-0.5s0.6-0.9,0.6-1.6c0-0.4-0.1-0.7-0.2-1c-0.1-0.3-0.3-0.5-0.5-0.8c-0.2-0.2-0.6-0.4-0.9-0.6
	c-0.4-0.2-0.9-0.4-1.5-0.6c-0.8-0.3-1.4-0.5-2-0.8c-0.6-0.3-1-0.7-1.4-1.1c-0.4-0.4-0.7-0.9-0.8-1.4c-0.2-0.5-0.3-1.2-0.3-1.9
	c0-1.7,0.5-3,1.4-3.8c0.9-0.8,2.2-1.2,3.9-1.2c0.8,0,1.5,0.1,2.1,0.3c0.6,0.2,1.2,0.4,1.7,0.8c0.5,0.4,0.8,0.9,1.1,1.4
	c0.3,0.6,0.4,1.3,0.4,2.1v0.5H223c0-0.8-0.1-1.4-0.4-1.9c-0.3-0.4-0.8-0.7-1.4-0.7c-0.4,0-0.7,0.1-1,0.2c-0.3,0.1-0.5,0.3-0.6,0.4
	c-0.2,0.2-0.3,0.4-0.3,0.6c-0.1,0.2-0.1,0.5-0.1,0.7c0,0.5,0.1,1,0.3,1.3c0.2,0.4,0.7,0.7,1.4,1l2.7,1.2c0.7,0.3,1.2,0.6,1.6,0.9
	c0.4,0.3,0.7,0.6,1,1c0.2,0.4,0.4,0.8,0.5,1.2c0.1,0.4,0.1,0.9,0.1,1.4c0,1.8-0.5,3.1-1.6,3.9c-1,0.8-2.5,1.2-4.4,1.2
	c-2,0-3.3-0.4-4.2-1.3c-0.8-0.8-1.3-2.1-1.3-3.6v-0.7h3.5V16.3z"/>
<polygon points="239.1,6.8 235.4,6.8 235.4,21.1 231.9,21.1 231.9,6.8 228.2,6.8 228.2,4 239.1,4 "/>
<polygon points="250.7,6.8 244.6,6.8 244.6,10.9 250.3,10.9 250.3,13.7 244.6,13.7 244.6,18.3 250.9,18.3 250.9,21.1 241.1,21.1 
	241.1,4 250.7,4 "/>
<polygon points="258.7,4 261.1,16.1 261.2,16.1 263.7,4 268.8,4 268.8,21.1 265.6,21.1 265.6,7.4 265.6,7.4 262.5,21.1 259.8,21.1 
	256.8,7.4 256.7,7.4 256.7,21.1 253.6,21.1 253.6,4 "/>
<path d="M363.9,11.5c0.8,0,1.5-0.2,1.9-0.6c0.4-0.4,0.7-1.1,0.7-2c0-1.6-0.8-2.4-2.4-2.4h-1.6v4.9H363.9z M365.4,4
	c1.4,0,2.6,0.4,3.4,1.1c0.8,0.7,1.2,1.8,1.2,3.3c0,1.2-0.2,2.1-0.7,2.8c-0.5,0.7-1.2,1.2-2.2,1.4v0c0.9,0.1,1.5,0.4,1.9,0.8
	c0.4,0.4,0.6,1.1,0.7,2.1c0,0.3,0.1,0.7,0.1,1c0,0.4,0,0.8,0,1.3c0,0.9,0.1,1.6,0.1,2.1c0.1,0.5,0.3,0.8,0.6,1v0.1h-3.7
	c-0.2-0.2-0.3-0.5-0.3-0.8c0-0.3-0.1-0.6-0.1-1l-0.1-3.3c0-0.7-0.2-1.2-0.5-1.6c-0.3-0.4-0.8-0.6-1.5-0.6h-1.8v7.2H359V4H365.4z"/>
<path d="M348.4,15.5c0.1,0.8,0.2,1.5,0.3,2s0.4,0.9,0.7,1.1s0.7,0.3,1.2,0.3c0.5,0,0.9-0.1,1.2-0.3c0.3-0.2,0.6-0.6,0.7-1.1
	s0.3-1.2,0.3-2c0.1-0.8,0.1-1.8,0.1-2.9s0-2.1-0.1-2.9s-0.2-1.5-0.3-2s-0.4-0.9-0.7-1.1c-0.3-0.2-0.7-0.3-1.2-0.3
	c-0.5,0-0.9,0.1-1.2,0.3c-0.3,0.2-0.6,0.6-0.7,1.1s-0.3,1.2-0.3,2s-0.1,1.8-0.1,2.9S348.3,14.7,348.4,15.5 M345,9
	c0.1-1.1,0.4-2,0.8-2.8c0.4-0.8,1-1.4,1.8-1.8c0.8-0.4,1.8-0.7,3.1-0.7c1.3,0,2.3,0.2,3.1,0.7s1.4,1.1,1.8,1.8
	c0.4,0.8,0.7,1.7,0.8,2.8c0.1,1.1,0.2,2.3,0.2,3.6c0,1.3-0.1,2.5-0.2,3.6c-0.1,1.1-0.4,2-0.8,2.8c-0.4,0.8-1,1.4-1.8,1.8
	c-0.8,0.4-1.8,0.6-3.1,0.6c-1.3,0-2.3-0.2-3.1-0.6c-0.8-0.4-1.4-1-1.8-1.8c-0.4-0.8-0.7-1.7-0.8-2.8c-0.1-1.1-0.2-2.3-0.2-3.6
	C344.9,11.3,344.9,10.1,345,9"/>
<path d="M337.3,11.7c0.7,0,1.2-0.2,1.7-0.6c0.4-0.4,0.6-1.1,0.6-1.9c0-0.9-0.2-1.5-0.6-2c-0.4-0.4-1-0.7-1.8-0.7h-1.4v5.2H337.3z
	 M338.3,4c0.9,0,1.6,0.1,2.2,0.4c0.6,0.3,1.1,0.7,1.5,1.2c0.4,0.5,0.6,1,0.8,1.6c0.2,0.6,0.2,1.2,0.2,1.9c0,0.9-0.1,1.6-0.4,2.3
	c-0.3,0.7-0.6,1.2-1.1,1.6c-0.5,0.4-1,0.7-1.7,0.9c-0.7,0.2-1.4,0.3-2.2,0.3h-1.8v6.8h-3.5V4H338.3z"/>
<path d="M323.3,11.5c0.8,0,1.5-0.2,1.9-0.6c0.4-0.4,0.7-1.1,0.7-2c0-1.6-0.8-2.4-2.4-2.4h-1.6v4.9H323.3z M324.8,4
	c1.4,0,2.6,0.4,3.4,1.1c0.8,0.7,1.2,1.8,1.2,3.3c0,1.2-0.2,2.1-0.7,2.8c-0.5,0.7-1.2,1.2-2.2,1.4v0c0.9,0.1,1.5,0.4,1.9,0.8
	c0.4,0.4,0.6,1.1,0.7,2.1c0,0.3,0.1,0.7,0.1,1c0,0.4,0,0.8,0,1.3c0,0.9,0.1,1.6,0.1,2.1c0.1,0.5,0.3,0.8,0.6,1v0.1h-3.7
	c-0.2-0.2-0.3-0.5-0.3-0.8c0-0.3-0.1-0.6-0.1-1l-0.1-3.3c0-0.7-0.2-1.2-0.5-1.6c-0.3-0.4-0.8-0.6-1.5-0.6h-1.8v7.2h-3.5V4H324.8z"/>
<path d="M307.8,15.5c0.1,0.8,0.2,1.5,0.3,2c0.2,0.5,0.4,0.9,0.7,1.1c0.3,0.2,0.7,0.3,1.2,0.3c0.5,0,0.9-0.1,1.2-0.3
	c0.3-0.2,0.6-0.6,0.7-1.1c0.2-0.5,0.3-1.2,0.3-2c0.1-0.8,0.1-1.8,0.1-2.9s0-2.1-0.1-2.9c-0.1-0.8-0.2-1.5-0.3-2
	c-0.2-0.5-0.4-0.9-0.7-1.1c-0.3-0.2-0.7-0.3-1.2-0.3c-0.5,0-0.9,0.1-1.2,0.3c-0.3,0.2-0.6,0.6-0.7,1.1c-0.2,0.5-0.3,1.2-0.3,2
	c-0.1,0.8-0.1,1.8-0.1,2.9S307.8,14.7,307.8,15.5 M304.4,9c0.1-1.1,0.4-2,0.8-2.8s1-1.4,1.8-1.8c0.8-0.4,1.8-0.7,3.1-0.7
	c1.3,0,2.3,0.2,3.1,0.7s1.4,1.1,1.8,1.8c0.4,0.8,0.7,1.7,0.8,2.8c0.1,1.1,0.2,2.3,0.2,3.6c0,1.3-0.1,2.5-0.2,3.6
	c-0.1,1.1-0.4,2-0.8,2.8c-0.4,0.8-1,1.4-1.8,1.8c-0.8,0.4-1.8,0.6-3.1,0.6c-1.3,0-2.3-0.2-3.1-0.6c-0.8-0.4-1.4-1-1.8-1.8
	s-0.7-1.7-0.8-2.8c-0.1-1.1-0.2-2.3-0.2-3.6C304.3,11.3,304.3,10.1,304.4,9"/>
<path d="M298.1,7.1c-0.3-0.6-0.8-0.9-1.6-0.9c-0.4,0-0.8,0.1-1.1,0.3c-0.3,0.2-0.5,0.6-0.7,1.1c-0.2,0.5-0.3,1.2-0.3,2
	c-0.1,0.8-0.1,1.9-0.1,3.1c0,1.3,0,2.3,0.1,3.1c0.1,0.8,0.2,1.4,0.4,1.9c0.2,0.4,0.4,0.7,0.7,0.9c0.3,0.2,0.6,0.2,1,0.2
	c0.3,0,0.6-0.1,0.9-0.2c0.3-0.1,0.5-0.3,0.7-0.6c0.2-0.3,0.3-0.8,0.5-1.3c0.1-0.6,0.2-1.3,0.2-2.2h3.5c0,0.9-0.1,1.8-0.2,2.6
	c-0.1,0.8-0.4,1.6-0.8,2.2s-0.9,1.1-1.7,1.5c-0.7,0.4-1.6,0.5-2.8,0.5c-1.3,0-2.3-0.2-3.1-0.6c-0.8-0.4-1.4-1-1.8-1.8
	c-0.4-0.8-0.7-1.7-0.8-2.8c-0.1-1.1-0.2-2.3-0.2-3.6c0-1.3,0.1-2.5,0.2-3.6c0.1-1.1,0.4-2,0.8-2.8c0.4-0.8,1-1.4,1.8-1.8
	c0.8-0.4,1.8-0.7,3.1-0.7c1.2,0,2.2,0.2,2.9,0.6c0.7,0.4,1.2,0.9,1.6,1.5c0.4,0.6,0.6,1.3,0.7,2c0.1,0.7,0.1,1.4,0.1,2h-3.5
	C298.6,8.5,298.4,7.6,298.1,7.1"/>
<path d="M274.9,16.3c0,0.4,0,0.8,0.1,1.1c0.1,0.3,0.2,0.6,0.4,0.8c0.2,0.2,0.4,0.4,0.7,0.5c0.3,0.1,0.7,0.2,1.1,0.2
	c0.5,0,1-0.2,1.4-0.5c0.4-0.3,0.6-0.9,0.6-1.6c0-0.4-0.1-0.7-0.2-1c-0.1-0.3-0.3-0.5-0.5-0.8c-0.2-0.2-0.6-0.4-0.9-0.6
	c-0.4-0.2-0.9-0.4-1.5-0.6c-0.8-0.3-1.4-0.5-2-0.8c-0.6-0.3-1-0.7-1.4-1.1c-0.4-0.4-0.7-0.9-0.8-1.4c-0.2-0.5-0.3-1.2-0.3-1.9
	c0-1.7,0.5-3,1.4-3.8c0.9-0.8,2.2-1.2,3.9-1.2c0.8,0,1.5,0.1,2.1,0.3c0.6,0.2,1.2,0.4,1.7,0.8c0.5,0.4,0.8,0.9,1.1,1.4
	s0.4,1.3,0.4,2.1v0.5h-3.3c0-0.8-0.1-1.4-0.4-1.9c-0.3-0.4-0.8-0.7-1.4-0.7c-0.4,0-0.7,0.1-1,0.2c-0.3,0.1-0.5,0.3-0.6,0.4
	c-0.2,0.2-0.3,0.4-0.3,0.6c-0.1,0.2-0.1,0.5-0.1,0.7c0,0.5,0.1,1,0.3,1.3c0.2,0.4,0.7,0.7,1.4,1l2.7,1.2c0.7,0.3,1.2,0.6,1.6,0.9
	c0.4,0.3,0.7,0.6,1,1c0.2,0.4,0.4,0.8,0.5,1.2c0.1,0.4,0.1,0.9,0.1,1.4c0,1.8-0.5,3.1-1.6,3.9c-1,0.8-2.5,1.2-4.4,1.2
	c-2,0-3.3-0.4-4.2-1.3s-1.3-2.1-1.3-3.6v-0.7h3.5V16.3z"/>
<path d="M380,14.7L378.4,7h0l-1.7,7.7H380z M380.5,4l4.5,17.1h-3.6l-0.8-3.6h-4.6l-0.8,3.6h-3.6L376.2,4H380.5z"/>
<polygon points="395.5,6.8 391.8,6.8 391.8,21.1 388.3,21.1 388.3,6.8 384.6,6.8 384.6,4 395.5,4 "/>
<rect x="397.7" y="4" width="3.5" height="17.1"/>
<path d="M407.3,15.5c0.1,0.8,0.2,1.5,0.3,2s0.4,0.9,0.7,1.1c0.3,0.2,0.7,0.3,1.2,0.3c0.5,0,0.9-0.1,1.2-0.3c0.3-0.2,0.6-0.6,0.7-1.1
	s0.3-1.2,0.3-2c0.1-0.8,0.1-1.8,0.1-2.9s0-2.1-0.1-2.9c-0.1-0.8-0.2-1.5-0.3-2s-0.4-0.9-0.7-1.1c-0.3-0.2-0.7-0.3-1.2-0.3
	c-0.5,0-0.9,0.1-1.2,0.3c-0.3,0.2-0.6,0.6-0.7,1.1s-0.3,1.2-0.3,2c-0.1,0.8-0.1,1.8-0.1,2.9S407.3,14.7,407.3,15.5 M404,9
	c0.1-1.1,0.4-2,0.8-2.8s1-1.4,1.8-1.8c0.8-0.4,1.8-0.7,3.1-0.7c1.3,0,2.3,0.2,3.1,0.7c0.8,0.4,1.4,1.1,1.8,1.8
	c0.4,0.8,0.7,1.7,0.8,2.8c0.1,1.1,0.2,2.3,0.2,3.6c0,1.3-0.1,2.5-0.2,3.6c-0.1,1.1-0.4,2-0.8,2.8c-0.4,0.8-1,1.4-1.8,1.8
	c-0.8,0.4-1.8,0.6-3.1,0.6c-1.3,0-2.3-0.2-3.1-0.6c-0.8-0.4-1.4-1-1.8-1.8s-0.7-1.7-0.8-2.8c-0.1-1.1-0.2-2.3-0.2-3.6
	C403.8,11.3,403.9,10.1,404,9"/>
<polygon points="426.1,15.7 426.2,15.7 426.2,4 429.4,4 429.4,21.1 425.4,21.1 421.2,9.1 421.1,9.1 421.1,21.1 418,21.1 418,4 
	422,4 "/>
</svg>
