<svg id="レイヤー_1" data-name="レイヤー 1" xmlns="http://www.w3.org/2000/svg" viewBox="0 0 729.09 106.23"><defs><style>.cls-1{fill:#fff;}</style></defs><title>Logo-Infinix-i-Dual-plane-White</title><polygon class="cls-1" points="147.73 15.08 150.28 2.78 165.8 2.78 163.25 15.08 147.73 15.08"/><path class="cls-1" d="M321.18,60.93l2.45-11.54h27.76l-2.45,11.54Z" transform="translate(-8.5 -8.5)"/><path class="cls-1" d="M354,89.57l11.77-55.73H381.2L369.38,89.57Zm13.77-66.06,2.55-12.32h15.54l-2.55,12.32Z" transform="translate(-8.5 -8.5)"/><path class="cls-1" d="M46.29,46.31A111.63,111.63,0,0,0,48.4,33.89H62.81l-1.66,9.87c5.32-7.43,10.87-11,20.06-11,9,0,15.19,4.33,15.19,13.64a32.36,32.36,0,0,1-.66,6.32L88,89.54H72.68l7-33.48a29.21,29.21,0,0,0,.89-5.76c0-4.32-2-7.21-7.32-7.21-8.2,0-12.3,7.43-13.86,14.63L52.61,89.54H37.21Z" transform="translate(-8.5 -8.5)"/><path class="cls-1" d="M89.75,103.51a16,16,0,0,0,4.1.55c6.87,0,8.76-6.43,10.19-13l9.87-47h-10.2l2.22-10.2h10.2l1.22-5.66c2.65-11.6,9-19.7,22.07-19.7a46.88,46.88,0,0,1,10.42,1.22l-2.77,9.64a14.88,14.88,0,0,0-5.1-.89c-6.21,0-8.32,5.88-9.54,10.75l-1,4.66h12l-2.22,10.2H129.32L119.24,92c-2.33,11-7.65,22.73-23.17,22.73a35.84,35.84,0,0,1-9-1Z" transform="translate(-8.5 -8.5)"/><polygon class="cls-1" points="133.98 81.04 145.73 25.39 161.14 25.39 149.39 81.04 133.98 81.04"/><path class="cls-1" d="M179.84,46.31a111.22,111.22,0,0,0,2.11-12.42h14.41l-1.66,9.87c5.32-7.43,10.86-11,20.06-11,9,0,15.19,4.33,15.19,13.64a32.51,32.51,0,0,1-.66,6.32l-7.76,36.8h-15.3l7-33.48a29.33,29.33,0,0,0,.88-5.76c0-4.32-2-7.21-7.31-7.21-8.2,0-12.3,7.43-13.86,14.63l-6.76,31.82H170.75Z" transform="translate(-8.5 -8.5)"/><path class="cls-1" d="M232.79,89.54l11.75-55.65H260L248.2,89.54Zm13.74-66,2.55-12.3H264.6l-2.55,12.3Z" transform="translate(-8.5 -8.5)"/><path class="cls-1" d="M255.42,89.54l24.94-29.27L268.72,33.89h16.07l6.76,20.28,14.08-20.28h16.3l-22.39,26.6,12.3,29H295.43l-6.87-21.73L271.82,89.54Z" transform="translate(-8.5 -8.5)"/><path class="cls-1" d="M18.71,15.64c-.11,0-.17,0-.19.13L18,18.41s0,.11.06.13c3.49.82,5,3.09,4,7.36L8.5,89.54H24.9L40.63,15.65Z" transform="translate(-8.5 -8.5)"/><path class="cls-1" d="M403,89.49l11.8-55.65h14.52c12.68,0,22.53,7.51,22.53,20.69,0,21.69-12.52,35-34.29,35Zm7.68-5.26h4.59c19.78,0,30-9.26,30-29.29,0-10.6-7.51-15.85-17.44-15.85h-7.51Z" transform="translate(-8.5 -8.5)"/><path class="cls-1" d="M461.6,73a28.28,28.28,0,0,0-.67,5.09c0,4,1.92,7.34,7.26,7.34,8.26,0,12.27-7.34,13.85-14.43l4.84-23.2h6.17l-6.67,31.87c-.67,3.25-1.25,6.59-1.59,9.85H479.2l1.17-7.59c-3.75,5.34-7.76,8.51-14.52,8.51s-11.26-4.17-11.26-10.85a27.33,27.33,0,0,1,.58-5l5.59-26.78h6.18Z" transform="translate(-8.5 -8.5)"/><path class="cls-1" d="M520.58,89.49a76.87,76.87,0,0,1,1.42-11c-2.42,4.92-7.93,11.93-17,11.93-7.34,0-11.09-5.59-11.09-13.1,0-16.19,13.68-30.2,29.7-30.2a27.66,27.66,0,0,1,10.09,1.75L529,71.15a92.05,92.05,0,0,0-2.34,18.36Zm6.26-36.71a12.19,12.19,0,0,0-4.51-.75c-12.43,0-22.19,13-22.19,24.7,0,4.67,1.5,8.68,7.09,8.68,6.68,0,14.35-8.84,16.77-19.77Z" transform="translate(-8.5 -8.5)"/><path class="cls-1" d="M535.59,89.49l12.77-60.16h6.09L541.68,89.49Z" transform="translate(-8.5 -8.5)"/><path class="cls-1" d="M557.27,107.51l9.85-45.72c1-4.67,1.75-9.18,2.34-13.85h5.84L573,59c2.42-4.92,7.26-11.85,16.44-11.85,7.34,0,11.26,5.59,11.26,13.18,0,15.6-9.51,30.12-25.53,30.12a38.34,38.34,0,0,1-8.09-.67l-3.84,17.77Zm10.85-22.86a33.36,33.36,0,0,0,7.34.75c13.1,0,18.94-13.52,18.94-24.53,0-4.67-1.59-8.84-7.26-8.84-6.68,0-14,8.84-16.27,19.77Z" transform="translate(-8.5 -8.5)"/><path class="cls-1" d="M602,89.49l12.77-60.16h6.09L608.08,89.49Z" transform="translate(-8.5 -8.5)"/><path class="cls-1" d="M646.29,89.49a76.86,76.86,0,0,1,1.42-11c-2.42,4.92-7.93,11.93-17,11.93-7.34,0-11.09-5.59-11.09-13.1,0-16.19,13.68-30.2,29.7-30.2a27.66,27.66,0,0,1,10.09,1.75l-4.75,22.28a92,92,0,0,0-2.34,18.36Zm6.26-36.71A12.19,12.19,0,0,0,648,52c-12.43,0-22.19,13-22.19,24.7,0,4.67,1.5,8.68,7.09,8.68,6.68,0,14.35-8.84,16.77-19.77Z" transform="translate(-8.5 -8.5)"/><path class="cls-1" d="M660,89.49l6.59-31.79a98.79,98.79,0,0,0,1.67-9.76h5.59l-1.17,7.43c4-5.34,8-8.26,14.77-8.26s11.1,4,11.1,10.68a21.45,21.45,0,0,1-.59,5l-5.59,26.7h-6.09l5.25-25.2a28.69,28.69,0,0,0,.75-5.09c0-4-2-7.18-7.34-7.18-8.34,0-12.35,7.09-13.93,14.27l-4.92,23.2Z" transform="translate(-8.5 -8.5)"/><path class="cls-1" d="M729,87.57a30.1,30.1,0,0,1-13.27,2.84c-8.34,0-14.43-4.51-14.43-13.43,0-15.69,12.35-29.87,25.36-29.87,5.68,0,10.93,2.59,10.93,8.84,0,13.68-18.36,14.68-29.12,14.68a19,19,0,0,0-.84,5.84c0,6,3.5,9.18,9.51,9.18a23.1,23.1,0,0,0,11.43-3.17ZM709.52,66.21c9.09,0,22.2-.92,22.2-9.76,0-3.75-2.92-4.75-6.18-4.75-5.59,0-10.51,4.59-13.6,9.59A29.7,29.7,0,0,0,709.52,66.21Z" transform="translate(-8.5 -8.5)"/><path class="cls-1" d="M324.84,22.55H322v-1h6.94v1h-2.86v8.34h-1.22Z" transform="translate(-8.5 -8.5)"/><path class="cls-1" d="M337.87,26.77c-.07-1.31-.15-2.88-.14-4h0c-.32,1.1-.71,2.27-1.18,3.56l-1.65,4.55H334l-1.52-4.46c-.45-1.32-.82-2.53-1.08-3.64h0c0,1.17-.1,2.74-.18,4.14l-.25,4h-1.16l.65-9.37H332l1.6,4.53c.39,1.15.71,2.18,1,3.16h0a31,31,0,0,1,1-3.16l1.67-4.53h1.54l.58,9.37h-1.18Z" transform="translate(-8.5 -8.5)"/></svg>